<?xml version="1.0" encoding="UTF-8"?>
<svg width="143px" height="143px" viewBox="0 0 143 143" version="1.1" xmlns="http://www.w3.org/2000/svg" xmlns:xlink="http://www.w3.org/1999/xlink">
    <title>Group</title>
    <g id="Page-1" stroke="none" stroke-width="1" fill="none" fill-rule="evenodd">
        <g id="Group">
            <rect id="Rectangle" fill="#CF2D2D" x="0" y="0" width="143" height="143"></rect>
            <g id="noun_code_3401863" transform="translate(27.000000, 35.000000)"></g>
            <path d="M115.11,68 L98.27,51.18 C96.0617858,49.1033657 92.6033231,49.1564548 90.4598889,51.2998889 C88.3164548,53.4433231 88.2633657,56.9017858 90.34,59.11 L103.2,72 L90.34,84.81 C88.1529524,86.999809 88.155191,90.5479524 90.345,92.735 C92.534809,94.9220476 96.0829524,94.919809 98.27,92.73 L115.11,75.92 C117.291698,73.7307394 117.291698,70.1892606 115.11,68 L115.11,68 Z M53.66,51.18 C51.469587,48.9916496 47.920413,48.9916496 45.73,51.18 L28.89,68 C26.7016496,70.190413 26.7016496,73.739587 28.89,75.93 L45.73,92.73 C47.1447717,94.1465581 49.2077995,94.70074 51.1419606,94.1837907 C53.0761217,93.6668415 54.5875712,92.157298 55.1069606,90.2237907 C55.62635,88.2902834 55.0747717,86.2265581 53.66,84.81 L40.8,72 L53.66,59.11 C55.8483504,56.919587 55.8483504,53.370413 53.66,51.18 L53.66,51.18 Z M82.21,35.92 C79.2861868,34.8738564 76.0661089,36.3834075 75,39.3 L58.41,100.83 C57.6534015,103.661136 59.1829201,106.601598 61.9353781,107.607454 C64.6878361,108.61331 67.752889,107.351883 69,104.7 L85.59,43.17 C86.1049356,41.760465 86.0379736,40.2039811 85.4038845,38.8438787 C84.7697954,37.4837763 83.620676,36.4318016 82.21,35.92 Z" id="Shape" fill="#FFFFFF" fill-rule="nonzero"></path>
        </g>
    </g>
</svg>