<?xml version="1.0" encoding="UTF-8"?>
<svg width="89px" height="92px" viewBox="0 0 89 92" version="1.1" xmlns="http://www.w3.org/2000/svg" xmlns:xlink="http://www.w3.org/1999/xlink">
    <title>CrackleHatLogo</title>
    <g id="Page-1" stroke="none" stroke-width="1" fill="none" fill-rule="evenodd">
        <g id="CrackleHatLogo" fill="#000000" fill-rule="nonzero">
            <g id="Group">
                <path d="M49.955,49.352 C56.519,49.352 61.859,43.517 61.859,36.345 C61.859,29.173 56.519,23.338 49.955,23.338 C43.391,23.338 38.051,29.173 38.051,36.345 C38.051,43.517 43.391,49.352 49.955,49.352 Z M49.955,24.837 C55.692,24.837 60.359,29.999 60.359,36.344 C60.359,42.689 55.692,47.851 49.955,47.851 C44.218,47.851 39.551,42.689 39.551,36.344 C39.551,30 44.218,24.837 49.955,24.837 Z" id="Shape"></path>
                <path d="M88.055,56.042 C87.101,53.096 85.563,51.239 83.483,50.523 C81.495,49.836 79.522,50.392 78.273,50.931 L75.794,36.573 C77.869,36.736 81.475,39.146 83.687,41.088 L86.267,43.353 L85.307,40.057 C83.749,34.709 78.017,31.218 74.582,29.557 C76.595,29.691 79.753,30.341 82.86,31.335 L84.974,32.011 L84.08,29.98 C82.381,26.12 75.254,24.382 71.806,23.755 C74.277,22.153 80.032,22.733 82.192,23.142 L85.784,23.822 L83.039,21.409 C80.364,19.057 74.152,18.477 69.855,18.373 C73.07,17.538 77.98,16.717 82.486,16.229 L85.644,15.888 L82.86,14.359 C80.19,12.892 67.925,13.083 60.969,13.322 C66.202,11.581 75.481,9.652 81.759,8.575 L85.879,7.868 L81.885,6.634 C75.442,4.642 60.197,6.948 52.656,8.294 C57.324,6.185 65.666,4.368 71.236,3.529 L76.799,2.692 L71.288,1.56 C48.675,-3.083 30.724,14.924 28.333,17.455 C26.367,17.676 23.174,18.18 22.198,21.005 C21.509,20.835 20.795,20.738 20.06,20.738 C14.7,20.738 10.34,25.496 10.34,31.345 C10.34,32.963 10.684,34.492 11.28,35.865 C11.099,36.191 10.936,36.488 10.805,36.732 C9.637,35.617 8.505,35.344 7.677,35.344 C3.583,35.344 0.375,42.047 0.375,50.603 C0.375,59.16 3.583,65.862 7.677,65.862 C8.272,65.862 8.849,65.728 9.406,65.463 C10.684,72.874 13.526,78.263 17.866,81.495 C21.953,84.539 26.183,84.761 28.026,84.684 C28.839,87.878 30.587,89.976 33.228,90.928 C34.293,91.312 35.475,91.488 36.745,91.4870042 C48.479,91.486 67.734,76.544 71.785,73.291 C73.8,75.139 76.564,75.294 79.514,73.689 C85.005,70.7 90.037,62.162 88.055,56.042 Z M20.06,22.238 C24.593,22.238 28.28,26.323 28.28,31.345 C28.28,33.682 27.482,35.904 26.032,37.601 L26.086,37.647 C25.129,37.567 24.072,37.812 23.187,38.357 C22.696,38.581 22.294,38.973 21.848,39.318 C21.554,39.653 21.233,39.986 20.984,40.378 C20.678,40.416 20.37,40.451 20.06,40.451 C15.527,40.451 11.84,36.366 11.84,31.344 C11.84,26.324 15.527,22.238 20.06,22.238 Z M78.559,71.933 C76.858,72.862 74.45,73.505 72.651,71.299 L72.014,70.519 L71.239,71.16 C71.173,71.216 64.485,76.72 56.491,81.657 C46.102,88.072 38.292,90.629 33.908,89.048 C31.712,88.257 30.367,86.419 29.797,83.43 L29.614,82.487 L28.664,82.63 C28.616,82.637 23.655,83.333 19.031,79.869 C14.848,76.735 12.193,71.257 11.141,63.586 L10.873,61.632 L9.455,63.003 C8.864,63.574 8.267,63.864 7.678,63.864 C5.17,63.864 2.376,58.419 2.376,50.605 C2.376,42.791 5.17,37.346 7.678,37.346 C8.79,37.346 9.718,38.376 10.3,39.241 L11.715,41.341 L12.186,38.401 C12.24,38.297 12.332,38.123 12.443,37.915 C14.225,40.371 16.974,41.955 20.062,41.955 C20.147,41.955 20.231,41.947 20.315,41.945 C20.109,42.687 20.028,43.475 20.11,44.257 C20.407,46.725 21.882,48.856 23.864,49.826 C24.864,50.307 26.005,50.327 26.927,50.115 C27.823,49.912 28.68,49.58 29.314,48.972 C29.965,48.371 30.146,47.345 29.788,46.729 C29.479,46.095 28.985,45.76 28.586,45.56 C27.742,45.201 27.233,45.337 27.24,45.388 C27.228,45.487 27.714,45.523 28.371,45.942 C28.682,46.164 29.038,46.5 29.207,46.969 C29.396,47.436 29.24,47.979 28.774,48.389 C28.292,48.796 27.551,49.062 26.731,49.203 C25.938,49.335 25.113,49.294 24.312,48.891 C22.745,48.077 21.47,46.219 21.229,44.138 C20.994,42.043 22.08,40.122 23.706,39.259 C25.261,38.225 27.01,38.482 28.167,39.274 C29.358,40.029 30.101,41.004 30.613,41.637 C31.117,42.291 31.37,42.681 31.442,42.646 C31.511,42.615 31.388,42.151 30.98,41.398 C30.557,40.665 29.901,39.567 28.613,38.614 C28.323,38.39 27.98,38.19 27.603,38.026 C29.009,36.14 29.783,33.797 29.783,31.346 C29.783,27.061 27.438,23.37 24.079,21.698 C24.64,20.011 26.756,19.637 28.923,19.403 L29.308,19.361 L29.565,19.071 C29.596,19.036 30.143,18.428 31.141,17.468 C33.198,19.239 34.33,22.95 34.33,28.218 C34.33,28.218 46.802,12.016 57.042,21.488 C67.28,30.96 71.35,60.39 71.35,60.39 L78.077,53.286 L78.078,53.285 C78.103,53.267 80.594,51.635 82.841,52.418 C84.29,52.921 85.403,54.348 86.153,56.659 C87.805,61.758 83.358,69.319 78.559,71.933 Z" id="Shape"></path>
                <path d="M6.364,41.203 C6.102,41.311 7.347,44.282 8.105,48.405 C7.937,48.416 7.751,48.45 7.531,48.545 C6.821,48.862 6.181,49.677 5.769,50.607 C4.969,52.497 5.018,54.146 5.314,54.186 C5.628,54.241 6.083,52.74 6.798,51.063 C7.168,50.235 7.574,49.57 7.954,49.219 C8.041,49.136 8.128,49.069 8.211,49.011 C8.287,49.469 8.359,49.935 8.419,50.415 C8.738,52.976 8.609,55.309 8.274,56.956 C7.953,58.607 7.523,59.589 7.678,59.668 C7.794,59.737 8.496,58.859 9.045,57.154 C9.605,55.462 9.873,52.961 9.537,50.283 C8.854,44.896 6.613,41.051 6.364,41.203 Z" id="Path"></path>
                <path d="M65.255,55.639 L64.818,54.951 C64.668,54.706 64.518,54.517 64.369,54.347 L63.919,53.806 C63.269,53.102 62.554,52.324 61.442,51.825 C61.158,51.727 60.87,51.624 60.582,51.55 L59.712,51.455 C59.168,51.471 58.609,51.498 58.137,51.618 C57.142,51.806 56.279,52.119 55.422,52.421 C53.724,53.043 52.119,53.715 50.542,54.364 C47.392,55.667 44.348,56.901 41.443,58.023 C40.036,58.548 38.625,58.933 37.232,59.17 C35.836,59.376 34.465,59.442 33.143,59.365 C30.5,59.17 28.098,58.399 26.06,57.37 C21.966,55.279 19.306,52.457 17.569,50.529 C16.643,49.467 15.988,48.633 15.552,48.091 C16.156,47.495 16.519,46.804 16.659,46.271 C16.822,45.677 16.752,45.272 16.602,45.245 C16.298,45.173 15.791,46.439 14.621,47.439 C13.486,48.468 12.13,48.778 12.186,49.127 C12.206,49.269 12.584,49.373 13.192,49.296 C13.759,49.235 14.54,48.953 15.23,48.385 C15.545,49.02 16.079,49.937 16.883,51.073 C17.472,51.889 18.198,52.819 19.102,53.801 L14.162,59.774 L17.023,61.727 L20.208,65.59 L20.572,64.689 C20.97,64.748 21.578,64.857 22.323,65.044 L21.203,67.914 L26.474,68.657 L30.8,70.015 L30.8,69.542 C32.481,70.498 33.753,73.713 34.501,76.005 C34.608,76.628 34.719,77.279 34.833,77.95 C34.643,77.876 34.445,77.799 34.26,77.727 C34.398,78.469 34.531,79.184 34.658,79.868 C34.74,80.254 34.818,80.622 34.892,80.97 C35.044,81.664 35.189,82.274 35.321,82.778 C35.463,83.32 35.588,83.726 35.694,83.994 C35.094,83.797 34.765,83.667 34.72,83.762 C34.682,83.83 34.976,84.055 35.587,84.429 C35.741,84.52 35.91,84.631 36.107,84.73 C36.311,84.815 36.535,84.907 36.777,85.007 C37.021,85.103 37.284,85.216 37.57,85.317 C37.865,85.39 38.18,85.468 38.513,85.551 C39.848,85.846 41.577,86.002 43.513,85.645 C45.449,85.316 47.576,84.556 49.712,83.358 C51.854,82.168 53.994,80.535 56.043,78.541 C58.087,76.543 60.069,74.197 61.786,71.469 C62.66,70.116 63.45,68.656 64.147,67.104 C64.844,65.553 65.443,63.899 65.788,62.108 C66.11,60.333 66.296,58.365 65.555,56.375 L65.255,55.639 Z M50.435,63.991 L45.616,66.098 L44.96,58.911 C45.716,58.624 46.468,58.342 47.237,58.042 L50.435,63.991 Z M56.176,54.529 C56.347,54.469 56.519,54.415 56.691,54.356 L57.737,58.91 L53.826,61.111 L52.571,55.925 C53.766,55.445 54.967,54.965 56.176,54.529 Z M37.521,61.126 C38.22,61.025 38.922,60.884 39.624,60.715 L41.985,65.835 L38.653,67.51 L34.888,68.665 L34.598,61.292 C35.557,61.3 36.533,61.25 37.521,61.126 Z M17.75,61.033 L15.632,59.564 L19.802,54.521 C19.897,54.617 19.98,54.71 20.078,54.806 C20.814,55.529 21.659,56.269 22.606,56.987 L19.911,63.654 L17.75,61.033 Z M26.696,67.685 L22.595,67.101 L25.753,59.006 C26.973,59.651 28.327,60.214 29.801,60.621 L29.801,68.654 L26.696,67.685 Z M36,84.088 C36.029,83.816 36.018,83.342 35.965,82.667 C35.924,82.148 35.859,81.524 35.775,80.818 C35.73,80.465 35.683,80.092 35.633,79.701 L35.613,79.554 C35.605,79.495 35.6,79.455 35.603,79.466 L35.608,79.438 C35.611,79.423 35.615,79.413 35.619,79.408 L35.656,79.436 C35.696,79.456 35.571,79.409 35.844,79.522 C36.285,79.703 36.738,79.889 37.199,80.078 C37.457,79.992 37.722,79.903 37.988,79.814 C38.355,79.689 38.716,79.566 39.069,79.445 L39.299,79.365 L39.303,79.36 L39.321,79.346 C39.321,79.346 39.329,79.354 39.333,79.366 C39.333,79.382 39.337,79.343 39.334,79.405 L39.324,79.577 L39.306,79.915 C39.285,80.361 39.266,80.789 39.247,81.193 C39.216,82.002 39.199,82.72 39.199,83.318 C39.199,83.92 39.215,84.4 39.247,84.731 C39.051,84.716 38.847,84.706 38.664,84.685 C37.523,84.53 36.645,84.29 36,84.088 Z M46.055,83.474 C45.991,83.203 45.756,82.655 45.375,81.882 C45.112,81.349 44.783,80.712 44.399,79.995 C44.061,79.356 43.377,78.146 43.562,78.418 L43.624,78.434 C43.898,78.438 44.178,78.442 44.462,78.446 C45.166,78.449 45.893,78.452 46.636,78.456 L46.65,78.442 C47.163,77.93 47.665,77.429 48.152,76.944 L48.474,76.618 L48.615,76.475 L48.619,76.467 L48.653,76.412 C48.659,76.417 48.666,76.427 48.674,76.444 L48.688,76.475 L48.74,76.783 C48.818,77.234 48.893,77.664 48.963,78.07 C49.109,78.881 49.248,79.594 49.375,80.183 C49.491,80.721 49.596,81.149 49.689,81.462 C49.428,81.637 49.167,81.824 48.907,81.985 C47.944,82.58 46.988,83.074 46.055,83.474 Z" id="Shape"></path>
                <path d="M82.613,57.695 C81.839,57.453 80.852,57.34 79.757,57.434 C78.651,57.514 77.483,57.999 76.436,58.711 C74.377,60.26 73.414,62.38 72.873,63.843 C72.406,65.359 72.262,66.321 72.401,66.36 C72.56,66.407 72.975,65.53 73.606,64.152 C74.305,62.82 75.327,60.946 77.091,59.626 C77.233,59.531 77.378,59.448 77.523,59.361 C77.732,60.299 78.262,62.145 78.181,64.343 C78.115,67.449 76.434,69.55 76.733,69.767 C76.793,69.816 76.946,69.728 77.177,69.52 C77.405,69.311 77.733,68.996 78.021,68.519 C78.652,67.609 79.247,66.106 79.305,64.387 C79.391,62.668 78.942,61.163 78.52,60.159 C78.321,59.708 78.123,59.368 77.95,59.12 C78.588,58.785 79.242,58.543 79.894,58.461 C80.83,58.33 81.712,58.342 82.443,58.471 C83.916,58.696 84.795,59.093 84.874,58.947 C84.95,58.829 84.174,58.152 82.613,57.695 Z" id="Path"></path>
                <path d="M9.739,23.258 C10.366,22.063 11.543,20.59 13.354,19.627 C15.152,18.656 17.042,18.278 18.399,18.11 C19.777,17.937 20.603,17.974 20.63,17.925 C20.757,17.692 19.802,17.332 18.359,17.315 C16.91,17.287 14.835,17.551 12.814,18.64 C11.817,19.193 10.949,19.895 10.321,20.669 C9.685,21.437 9.269,22.24 9.012,22.934 C8.524,24.342 8.58,25.263 8.71,25.281 C8.883,25.317 9.114,24.461 9.739,23.258 Z" id="Path"></path>
                <ellipse id="Oval" cx="19.098" cy="36.344" rx="1.664" ry="1.828"></ellipse>
                <ellipse id="Oval" cx="52.515" cy="31.345" rx="2.559" ry="2.812"></ellipse>
            </g>
        </g>
    </g>
</svg>