<?xml version="1.0" encoding="UTF-8"?>
<svg width="143px" height="143px" viewBox="0 0 143 143" version="1.1" xmlns="http://www.w3.org/2000/svg" xmlns:xlink="http://www.w3.org/1999/xlink">
    <title>Group</title>
    <g id="Page-1" stroke="none" stroke-width="1" fill="none" fill-rule="evenodd">
        <g id="Group">
            <rect id="Rectangle" fill="#1C60E1" x="0" y="0" width="143" height="143"></rect>
            <g id="noun_Headphones_2818389" transform="translate(27.000000, 33.000000)" fill="#FFFFFF" fill-rule="nonzero">
                <path d="M84.457,48.154 C84.127,46.101 82.959,44.323 81.304,43.204 C81.309,41.801 81.309,40.606 81.309,39.657 C81.309,34.345 80.155,29.3 78.092,24.747 L79.572,24.053 C79.751,23.97 79.891,23.818 79.957,23.631 C80.027,23.445 80.018,23.24 79.933,23.06 C76.541,15.82 70.809,9.672 63.8,5.752 C58.081,2.554 51.581,0.863 45,0.863 C40.632,0.863 36.325,1.594 32.201,3.038 C22.465,6.443 14.376,13.779 10.004,23.166 C9.92,23.346 9.91,23.552 9.979,23.737 C10.045,23.924 10.185,24.074 10.364,24.158 L11.857,24.854 C9.831,29.378 8.689,34.386 8.689,39.655 L8.689,40.181 C8.689,41.077 8.689,42.089 8.691,43.204 C7.038,44.322 5.871,46.1 5.544,48.151 C2.938,48.203 0.83,50.336 0.83,52.956 L0.83,64.101 C0.83,66.722 2.937,68.855 5.544,68.906 C6.106,72.426 9.149,75.125 12.826,75.125 L16.483,75.125 C17.001,76.306 18.178,77.135 19.55,77.135 L20.56,77.135 C22.406,77.135 23.904,75.635 23.904,73.789 L23.904,43.273 C23.904,41.427 22.405,39.928 20.56,39.928 L19.55,39.928 C18.178,39.928 17.001,40.755 16.483,41.936 L12.826,41.936 C12.406,41.936 11.996,41.98 11.596,42.047 C11.594,41.383 11.594,40.757 11.594,40.183 L11.594,39.657 C11.594,34.826 12.635,30.234 14.49,26.082 L15.78,26.683 C15.878,26.729 15.988,26.753 16.096,26.753 C16.181,26.753 16.267,26.738 16.351,26.708 C16.536,26.641 16.688,26.501 16.772,26.322 C20.301,18.748 26.821,12.831 34.666,10.088 C37.998,8.922 41.479,8.33 45,8.33 C50.306,8.33 55.547,9.693 60.155,12.27 C65.812,15.434 70.433,20.391 73.172,26.229 C73.346,26.602 73.791,26.762 74.164,26.588 L75.462,25.979 C77.349,30.159 78.403,34.785 78.403,39.657 C78.403,40.333 78.403,41.137 78.401,42.048 C78,41.981 77.593,41.937 77.173,41.937 L73.514,41.937 C72.999,40.756 71.82,39.929 70.451,39.929 L69.44,39.929 C67.597,39.929 66.095,41.428 66.095,43.274 L66.095,73.792 C66.095,75.638 67.597,77.138 69.44,77.138 L70.451,77.138 C71.82,77.138 73,76.309 73.514,75.128 L77.173,75.128 C80.846,75.128 83.894,72.429 84.456,68.909 C87.062,68.858 89.1690004,66.725 89.1690004,64.104 L89.1690004,52.959 C89.17,50.339 87.063,48.206 84.457,48.154 Z M2.573,64.104 L2.573,52.959 C2.573,51.336 3.843,50.005 5.445,49.902 L5.445,67.16 C3.843,67.06 2.573,65.73 2.573,64.104 Z M17.946,43.273 C17.946,42.388 18.665,41.669 19.55,41.669 L20.56,41.669 C21.445,41.669 22.162,42.388 22.162,43.273 L22.162,73.791 C22.162,74.677 21.446,75.393 20.56,75.393 L19.55,75.393 C18.665,75.393 17.946,74.677 17.946,73.791 L17.946,43.273 Z M72.056,73.791 C72.056,74.677 71.336,75.393 70.452,75.393 L69.44,75.393 C68.556,75.393 67.837,74.677 67.837,73.791 L67.837,43.273 C67.837,42.388 68.556,41.669 69.44,41.669 L70.451,41.669 C71.336,41.669 72.055,42.388 72.055,43.273 L72.055,73.791 L72.056,73.791 Z M87.428,64.104 C87.428,65.731 86.155,67.06 84.557,67.161 L84.557,49.902 C86.155,50.005 87.428,51.336 87.428,52.959 L87.428,64.104 Z" id="Shape"></path>
            </g>
        </g>
    </g>
</svg>