<?xml version="1.0" encoding="UTF-8"?>
<svg width="143px" height="143px" viewBox="0 0 143 143" version="1.1" xmlns="http://www.w3.org/2000/svg" xmlns:xlink="http://www.w3.org/1999/xlink">
    <title>Group Copy</title>
    <g id="Page-1" stroke="none" stroke-width="1" fill="none" fill-rule="evenodd">
        <g id="Group-Copy">
            <rect id="Rectangle" fill="#73B939" x="0" y="0" width="143" height="143"></rect>
            <g id="noun_Camera_3664841" transform="translate(32.000000, 38.000000)" fill="#FFFFFF" fill-rule="nonzero">
                <path d="M48.85,0 L31.15,0 C28.7,0 26.6333333,1.76666667 26.2333333,4.18333333 L25.8166667,6.66666667 L54.1833333,6.66666667 L53.7666667,4.18333333 C53.3666667,1.76666667 51.3,0 48.85,0 Z" id="Path"></path>
                <path d="M8.33333333,5 L8.33333333,6.66666667 L18.3333333,6.66666667 L18.3333333,5 C18.3333333,4.08333333 17.5833333,3.33333333 16.6666667,3.33333333 L10,3.33333333 C9.08333333,3.33333333 8.33333333,4.08333333 8.33333333,5 Z" id="Path"></path>
                <circle id="Oval" cx="40" cy="41.6666667" r="10"></circle>
                <path d="M40,21.6666667 C45.05,21.6666667 49.6666667,23.5666667 53.1833333,26.6666667 L56.6666667,26.6666667 L56.6666667,10 L6.66666667,10 C2.98333333,10 0,13 0,16.6666667 L0,26.6666667 L26.8166667,26.6666667 C30.3333333,23.5666667 34.95,21.6666667 40,21.6666667 Z" id="Path"></path>
                <path d="M73.3333333,10 L60,10 L60,26.6666667 L80,26.6666667 L80,16.6666667 C80,13 77.0166667,10 73.3333333,10 Z M71.6666667,23.3333333 L65,23.3333333 L65,16.6666667 L71.6666667,16.6666667 L71.6666667,23.3333333 Z" id="Shape"></path>
                <path d="M23.3333333,41.6666667 C23.3333333,50.8666667 30.8166667,58.3333333 40,58.3333333 C49.1833333,58.3333333 56.6666667,50.8666667 56.6666667,41.6666667 C56.6666667,32.4833333 49.1833333,25 40,25 C30.8166667,25 23.3333333,32.4833333 23.3333333,41.6666667 Z M53.3333333,41.6666667 C53.3333333,49.0166667 47.35,55 40,55 C32.65,55 26.6666667,49.0166667 26.6666667,41.6666667 C26.6666667,34.3166667 32.65,28.3333333 40,28.3333333 C47.35,28.3333333 53.3333333,34.3166667 53.3333333,41.6666667 Z" id="Shape"></path>
                <path d="M60,41.6666667 C60,52.7 51.0333333,61.6666667 40,61.6666667 C28.9666667,61.6666667 20,52.7 20,41.6666667 C20,37.3166667 21.4166667,33.3 23.7833333,30 L0,30 L0,60 C0,63.6833333 2.98333333,66.6666667 6.66666667,66.6666667 L73.3333333,66.6666667 C77.0166667,66.6666667 80,63.6833333 80,60 L80,30 L56.2166667,30 C58.5833333,33.3 60,37.3166667 60,41.6666667 Z" id="Path"></path>
            </g>
        </g>
    </g>
</svg>